<svg width="50" height="60" xmlns="http://www.w3.org/2000/svg">
 <g id="Layer_1">
  <title>Layer 1</title>
  <path d="m22,1.5c0,0 0,0 0,1c0,0 -0.29289,1.29289 -1,2c-0.70711,0.70711 -1.29289,0.29289 -2,1c-0.70711,0.70711 -1,2 -1,2c-1,1 -2,1 -2,2c0,1 -0.61732,1.07612 -1,2c-0.5412,1.30656 -1.4588,1.69344 -2,3c-0.38268,0.92388 -0.61732,2.07612 -1,3c-0.5412,1.30656 -2,3 -2,4c0,1 -1,2 -1,3c0,1 -1,2 -1,3c0,0 -1,1 -1,2c0,1 0.38268,2.07612 0,3c-0.5412,1.30656 -1,2 -1,3c0,1 -1,2 -1,2c0,1 0,2 0,3c0,1 0,2 0,3c0,1 0,2 0,2c0,1 0,2 0,2c0,1 0,2 0,2c0,1 -0.70711,1.29289 0,2c0.70711,0.70711 1,1 1,1c1,0 1,0 1,0c1,1 1,1 2,1c0,0 0.29289,-0.70711 1,0c0.70711,0.70711 0,1 1,1c0,0 0,0 1,0c0,0 0,1 1,1c0,0 1,0 1,1c0,0 0,0 1,0c0,0 0,0 0,0c1,0 1,0 1,0c0,0 1,0 1,0c0,0 0,0 1,0c0,0 0.29289,0.70711 1,0c0.70711,-0.70711 1,-1 1,-1c0,0 1,-1 1,-1c0,0 1.29289,-0.29289 2,-1c0.70711,-0.70711 1,-1 1,-1c1,-1 1,-1 2,-2c0,0 0.29289,-0.29289 1,-1c0.70711,-0.70711 1,-1 2,-1c0,0 0.29289,-0.29289 1,-1c0.70711,-0.70711 0,-1 1,-2c0,0 1,-1 1,-1c0,-1 1,-1 1,-1c0,-1 1,-1 1,-1c0,0 0,-1 1,-1c0,0 1,0 1,-1c0,0 1,0 1,0c0,-1 1,-1 1,-1c1,-1 1,-1 1,-1c1,-1 1,-1 2,-2c0,0 0,-1 0,-1c1,0 1,-1 1,-1c0,0 1,-1 1,-1c0,0 0,-1 1,-1c0,0 0,0 0,-1c0,0 1,0 1,-1c0,0 0,0 0,0c0,-1 1,-1 1,-1c0,0 0,-1 0,-1c0,0 1,-1 1,-1c0,0 0,0 0,-1c0,0 0,0 1,0c0,0 0,0 0,0l0,-1" id="svg_1" stroke-width="3" stroke="#000" fill="none"/>
 </g>
</svg>